<mxfile host="Electron" agent="Mozilla/5.0 (Macintosh; Intel Mac OS X 10_15_7) AppleWebKit/537.36 (KHTML, like Gecko) draw.io/24.7.5 Chrome/126.0.6478.183 Electron/31.3.0 Safari/537.36" version="24.7.5">
  <diagram name="Page-1" id="bn5e49cWpLAdJq6FZEqL">
    <mxGraphModel dx="2653" dy="1696" grid="1" gridSize="10" guides="1" tooltips="1" connect="1" arrows="1" fold="1" page="1" pageScale="1" pageWidth="827" pageHeight="1169" math="0" shadow="0">
      <root>
        <mxCell id="0" />
        <mxCell id="1" parent="0" />
        <mxCell id="OR1_oCAoecUY9dGLHxh3-2" value="" style="rounded=1;whiteSpace=wrap;html=1;arcSize=7;fillColor=#ABB5C9;strokeColor=#616161;strokeWidth=9;" vertex="1" parent="1">
          <mxGeometry x="120" y="120" width="480" height="480" as="geometry" />
        </mxCell>
        <mxCell id="OR1_oCAoecUY9dGLHxh3-3" value="" style="endArrow=none;html=1;rounded=0;strokeColor=#616161;strokeWidth=8;" edge="1" parent="1">
          <mxGeometry width="50" height="50" relative="1" as="geometry">
            <mxPoint x="317" y="600" as="sourcePoint" />
            <mxPoint x="317" y="120" as="targetPoint" />
          </mxGeometry>
        </mxCell>
        <mxCell id="OR1_oCAoecUY9dGLHxh3-10" value="" style="rounded=0;whiteSpace=wrap;html=1;strokeColor=#616161;" vertex="1" parent="1">
          <mxGeometry x="340" y="246" width="60" height="60" as="geometry" />
        </mxCell>
        <mxCell id="OR1_oCAoecUY9dGLHxh3-11" value="" style="rounded=0;whiteSpace=wrap;html=1;strokeColor=#616161;" vertex="1" parent="1">
          <mxGeometry x="370" y="376" width="90" height="60" as="geometry" />
        </mxCell>
        <mxCell id="OR1_oCAoecUY9dGLHxh3-13" value="" style="rounded=0;whiteSpace=wrap;html=1;strokeColor=#616161;" vertex="1" parent="1">
          <mxGeometry x="545" y="376" width="50" height="60" as="geometry" />
        </mxCell>
        <mxCell id="OR1_oCAoecUY9dGLHxh3-14" value="" style="rounded=0;whiteSpace=wrap;html=1;strokeColor=#616161;" vertex="1" parent="1">
          <mxGeometry x="460" y="246" width="90" height="60" as="geometry" />
        </mxCell>
        <mxCell id="OR1_oCAoecUY9dGLHxh3-7" value="" style="endArrow=none;html=1;rounded=0;strokeColor=#616161;strokeWidth=8;" edge="1" parent="1">
          <mxGeometry width="50" height="50" relative="1" as="geometry">
            <mxPoint x="600" y="306" as="sourcePoint" />
            <mxPoint x="320" y="306" as="targetPoint" />
          </mxGeometry>
        </mxCell>
        <mxCell id="OR1_oCAoecUY9dGLHxh3-8" value="" style="endArrow=none;html=1;rounded=0;strokeColor=#616161;strokeWidth=8;" edge="1" parent="1">
          <mxGeometry width="50" height="50" relative="1" as="geometry">
            <mxPoint x="600" y="436" as="sourcePoint" />
            <mxPoint x="320" y="436" as="targetPoint" />
          </mxGeometry>
        </mxCell>
        <mxCell id="OR1_oCAoecUY9dGLHxh3-21" value="" style="group" vertex="1" connectable="0" parent="1">
          <mxGeometry x="216" y="224" width="350" height="350" as="geometry" />
        </mxCell>
        <mxCell id="OR1_oCAoecUY9dGLHxh3-18" value="" style="group" vertex="1" connectable="0" parent="OR1_oCAoecUY9dGLHxh3-21">
          <mxGeometry x="110" width="240" height="240" as="geometry" />
        </mxCell>
        <mxCell id="OR1_oCAoecUY9dGLHxh3-16" value="" style="ellipse;whiteSpace=wrap;html=1;aspect=fixed;strokeWidth=16;strokeColor=#616161;opacity=20;" vertex="1" parent="OR1_oCAoecUY9dGLHxh3-18">
          <mxGeometry width="240" height="240" as="geometry" />
        </mxCell>
        <mxCell id="OR1_oCAoecUY9dGLHxh3-17" value="" style="ellipse;whiteSpace=wrap;html=1;aspect=fixed;strokeWidth=23;strokeColor=#616161;fillColor=none;" vertex="1" parent="OR1_oCAoecUY9dGLHxh3-18">
          <mxGeometry width="240" height="240" as="geometry" />
        </mxCell>
        <mxCell id="OR1_oCAoecUY9dGLHxh3-19" value="" style="endArrow=none;html=1;rounded=0;strokeColor=#616161;strokeWidth=36;" edge="1" parent="OR1_oCAoecUY9dGLHxh3-21">
          <mxGeometry width="50" height="50" relative="1" as="geometry">
            <mxPoint y="350" as="sourcePoint" />
            <mxPoint x="150" y="200" as="targetPoint" />
          </mxGeometry>
        </mxCell>
        <mxCell id="OR1_oCAoecUY9dGLHxh3-23" value="" style="rounded=1;whiteSpace=wrap;html=1;fillColor=#616161;strokeColor=#616161;" vertex="1" parent="1">
          <mxGeometry x="145" y="302" width="150" height="30" as="geometry" />
        </mxCell>
        <mxCell id="OR1_oCAoecUY9dGLHxh3-24" value="&lt;font color=&quot;#616161&quot; face=&quot;Verdana&quot; style=&quot;font-size: 200px;&quot;&gt;&lt;b&gt;T&lt;/b&gt;&lt;/font&gt;" style="text;html=1;align=center;verticalAlign=middle;whiteSpace=wrap;rounded=0;" vertex="1" parent="1">
          <mxGeometry x="190" y="393" width="60" height="30" as="geometry" />
        </mxCell>
        <mxCell id="OR1_oCAoecUY9dGLHxh3-22" value="&lt;font color=&quot;#616161&quot; face=&quot;Verdana&quot; style=&quot;font-size: 200px;&quot;&gt;&lt;b&gt;R&lt;/b&gt;&lt;/font&gt;" style="text;html=1;align=center;verticalAlign=middle;whiteSpace=wrap;rounded=0;" vertex="1" parent="1">
          <mxGeometry x="190" y="197" width="60" height="30" as="geometry" />
        </mxCell>
      </root>
    </mxGraphModel>
  </diagram>
</mxfile>
